<svg xmlns="http://www.w3.org/2000/svg" viewBox="0 0 520 420"><defs><radialGradient id="a"><stop stop-color="#ffe39a"/><stop offset="1" stop-color="#ffe39a" stop-opacity="0"/></radialGradient><linearGradient id="b" x1="0" x2="1"><stop stop-color="#f9d983"/><stop offset="1" stop-color="#7fc8ff"/></linearGradient></defs><circle cx="260" cy="170" r="160" fill="url(#a)" opacity=".55"/><path d="M90 120c70-30 130-4 170 45 40-49 100-75 170-45v190c-70-30-130-5-170 45-40-50-100-75-170-45z" fill="url(#b)"/><path d="M260 166v188" stroke="#07111f" stroke-width="12"/><path d="M142 164h70M142 198h92M142 232h78M308 164h74M308 198h92M308 232h70" stroke="#07111f" stroke-width="13" stroke-linecap="round"/><path d="M260 56l15 42 45 1-36 26 13 43-37-26-37 26 13-43-36-26 45-1z" fill="#fff3c3"/></svg>